# xmcd
#
# Track frame offsets:
# 180
# 9051
# 18537
# 30624
# 45899
# 58796
# 70132
# 82022
# 90402
# 102859
# 114128
# 122458
#
# Disc length: 1815 seconds
#
#
# Revision: 0
# Processed by: cddbd v1.5.2PL0 Copyright (c) Steve Scherf et al.
# Submitted via: FreeRIP 2.11 
#
DISCID=7f07150c
DTITLE=In Cahotos - In Cahoots
DYEAR=1994
DGENRE=Bluegrass
TTITLE0=Lost John
TTITLE1=You Can Have Her
TTITLE2=Your Love Is Like A Flower
TTITLE3=Smoke That Cigarette
TTITLE4=Think Of What You've Done
TTITLE5=Wheel Hoss
TTITLE6=How Mountain Girls Can Love
TTITLE7=Down The Road
TTITLE8=With Those Teardrops In My Eyes
TTITLE9=Little Maggie
TTITLE10=Jack Of Diamonds
TTITLE11=Just Because
EXTD=
EXTT0=
EXTT1=
EXTT2=
EXTT3=
EXTT4=
EXTT5=
EXTT6=
EXTT7=
EXTT8=
EXTT9=
EXTT10=
EXTT11=
PLAYORDER=
